<?xml version="1.0" standalone="no"?>
<svg
  width="600"
  height="600"
  viewBox="0 0 600 600"
  xmlns="http://www.w3.org/2000/svg"
>
  <g transform="translate(300,300)">
    <path d="M110.3,-132.8C156,-93.2,214.9,-70.7,233.5,-31.4C252.1,8,230.4,64.2,191.6,91.1C152.8,117.9,96.9,115.3,46.2,139.1C-4.6,162.9,-50.2,213,-83.6,209.5C-117,206.1,-138.2,149,-161.4,98.3C-184.7,47.5,-210,3,-206.6,-39.9C-203.2,-82.8,-171,-124.1,-131.8,-164.9C-92.6,-205.6,-46.3,-245.8,-7,-237.5C32.4,-229.2,64.7,-172.4,110.3,-132.8Z" fill="#7bdcb5" />
  </g>
</svg>
  